<?xml version="1.0" encoding="UTF-8"?>
<!DOCTYPE svg PUBLIC "-//W3C//DTD SVG 1.1//EN" "http://www.w3.org/Graphics/SVG/1.1/DTD/svg11.dtd">
<!-- Creator: CorelDRAW -->
<svg xmlns="http://www.w3.org/2000/svg" xml:space="preserve" width="2048px" height="2048px" style="shape-rendering:geometricPrecision; text-rendering:geometricPrecision; image-rendering:optimizeQuality; fill-rule:evenodd; clip-rule:evenodd"
viewBox="0 0 2048 2048"
 xmlns:xlink="http://www.w3.org/1999/xlink">
 <defs>
  <style type="text/css">
   <![CDATA[
    .fil1 {fill:none}
    .fil0 {fill:#212121;fill-rule:nonzero}
   ]]>
  </style>
 </defs>
 <g id="Layer_x0020_1">
  <metadata id="CorelCorpID_0Corel-Layer"/>
  <path class="fil0" d="M1054.63 1309.17l182.405 231.966 0.0330709 -0.0259843c10.924,13.8921 8.51694,34.011 -5.3752,44.9351 -5.8878,4.62992 -12.8941,6.86457 -19.8449,6.84567l-390.407 0c-17.6728,0 -32.0008,-14.328 -32.0008,-32.0008 0,-8.04922 2.97166,-15.4028 7.87914,-21.0272l182.426 -231.993 25.1256 19.7504 -25.1551 -19.7799c6.33662,-8.05867 15.7665,-12.2528 25.2815,-12.2209l23.4851 0c10.8012,0 20.3528,5.35394 26.1473,13.5508zm91.4635 219.719l-129.417 -164.58 -129.416 164.58 258.833 0z"/>
  <path class="fil0" d="M287.999 455.112l736.001 0 736.001 0c17.6728,0 32.0008,14.328 32.0008,32.0008l0 840.503c0,17.6728 -14.328,32.0008 -32.0008,32.0008l-736.001 0 -736.001 0c-17.6728,0 -32.0008,-14.328 -32.0008,-32.0008l0 -840.503c0,-17.6728 14.328,-32.0008 32.0008,-32.0008zm736.001 64.0016l-704 0 0 776.501 704 0 704 0 0 -776.501 -704 0z"/>
  <path class="fil0" d="M716.903 1528.88c-17.6728,0 -32.0008,14.328 -32.0008,32.0008 0,17.6728 14.328,32.0008 32.0008,32.0008l599.546 0c17.6728,0 32.0008,-14.328 32.0008,-32.0008 0,-17.6728 -14.328,-32.0008 -32.0008,-32.0008l-599.546 0z"/>
  <path class="fil0" d="M731.052 1006.99c-1.72559,-0.154725 -4.13386,-0.236221 -7.25197,-0.236221 -21.9744,0 -41.8689,8.9067 -56.2654,23.3043 -14.3976,14.3965 -23.3043,34.2922 -23.3043,56.2654 0,21.9744 8.9067,41.8689 23.3043,56.2654 14.3965,14.3976 34.291,23.3043 56.2654,23.3043l471.513 0c21.9744,0 41.8689,-8.9067 56.2654,-23.3043 14.3976,-14.3965 23.3043,-34.291 23.3043,-56.2654 0,-21.9732 -8.9067,-41.8689 -23.3043,-56.2654 -14.3965,-14.3976 -34.291,-23.3043 -56.2654,-23.3043 -2.16496,0 -3.6,0.022441 -4.35237,0.0625985 -0.96378,0.0519685 -1.95591,0.126378 -2.97402,0.220866 -4.28268,0.734646 -8.81812,0.316536 -13.1362,-1.45276 -12.2646,-5.02678 -18.1311,-19.0453 -13.1043,-31.3099l22.2071 9.10276 -22.1256 -9.09331c3.04725,-7.43386 5.44134,-15.4028 7.09489,-23.8288 1.56732,-7.98426 2.39055,-16.3228 2.39055,-24.9366 0,-35.5217 -14.3976,-67.6808 -37.6725,-90.9556 -23.2748,-23.2748 -55.4339,-37.6725 -90.9556,-37.6725 -25.2272,0 -48.6768,7.18111 -68.4083,19.5933 -19.9666,12.561 -36.228,30.3981 -46.7894,51.5185 -1.13032,2.97992 -2.87599,5.78386 -5.24056,8.21339 -9.2445,9.49843 -24.4406,9.70394 -33.939,0.459449l0.046063 -0.0472441c-7.27087,-7.07599 -15.9425,-12.789 -25.5803,-16.7055 -9.19725,-3.73701 -19.3075,-5.79685 -29.954,-5.79685 -21.9744,0 -41.8689,8.9067 -56.2654,23.3032 -14.3976,14.3976 -23.3032,34.2922 -23.3032,56.2666 0,7.19528 0.875198,13.9795 2.51811,20.2618 1.60276,6.12874 4.00985,12.0921 7.11024,17.7732 3.06024,4.89331 4.37363,10.8992 3.2563,17.0244 -2.37874,13.0394 -14.8795,21.6803 -27.9189,19.3016l0.0165354 -0.0921261c-2.3563,-0.427559 -4.75276,-0.755906 -7.18111,-0.97441zm-23.0658 -47.263c-1.79173,-8.52402 -2.73544,-17.2358 -2.73544,-26.0315 0,-35.2252 14.2807,-67.1186 37.3654,-90.2044 23.0847,-23.0847 54.978,-37.3654 90.2032,-37.3654 16.9122,0 33.104,3.32481 47.954,9.35906 6.02835,2.44961 11.8323,5.35512 17.3693,8.67166 13.5095,-19.2461 30.7394,-35.6575 50.6339,-48.1725 27.2847,-17.1638 59.4886,-27.0933 93.9083,-27.0933 48.7725,0 92.9304,19.7717 124.893,51.7347 31.963,31.963 51.7347,76.1209 51.7347,124.893 0,11.5913 -1.14567,23.0043 -3.32835,34.1233l-0.15 0.757087c27.0071,4.3689 51.1748,17.2134 69.6815,35.7213 23.087,23.0847 37.3666,54.9792 37.3666,90.2032 0,35.2252 -14.2807,67.1186 -37.3666,90.2032 -23.0847,23.0858 -54.978,37.3666 -90.2032,37.3666l-471.513 0c-35.2252,0 -67.1186,-14.2807 -90.2032,-37.3666 -23.0858,-23.0847 -37.3666,-54.978 -37.3666,-90.2032 0,-35.224 14.2795,-67.1186 37.3666,-90.2032 19.5756,-19.5768 45.4855,-32.8193 74.3894,-36.3933z"/>
  <path class="fil0" d="M1230.31 972.341c-11.7012,6.10867 -16.2343,20.5488 -10.1256,32.25 6.10867,11.7012 20.5488,16.2343 32.25,10.1256 13.2118,-6.89764 25.4965,-15.6414 36.3957,-26.1047 10.5839,-10.1563 19.9134,-21.9366 27.5835,-35.2217l-20.7189 -12 20.7839 12c0.409843,-0.709843 0.778347,-1.43386 1.10906,-2.16614 20.9433,-37.5366 25.0784,-79.9737 14.7555,-118.501 -10.5295,-39.2977 -36.0555,-74.5819 -74.08,-96.5351 -31.4894,-18.1807 -66.6272,-24.3591 -100.113,-19.9583 -34.2425,4.50118 -66.7595,20.0882 -91.8816,45.2339 -9.32009,9.37087 -9.27757,24.5244 0.0933072,33.8445 9.37087,9.32009 24.5244,9.27757 33.8445,-0.0933072 17.5158,-17.5323 40.213,-28.4032 64.1304,-31.5473 23.3717,-3.07205 47.915,1.24961 69.926,13.9583 26.5677,15.339 44.4059,40.0016 51.7666,67.4729 7.213,26.9197 4.40433,56.4934 -10.0547,82.6134 -0.37441,0.539764 -0.729922,1.09961 -1.06417,1.67835l0.0484252 0.0283465c-5.40355,9.35434 -11.9362,17.6126 -19.3158,24.6933 -7.67599,7.3689 -16.2248,13.474 -25.3335,18.2291z"/>
  <path class="fil0" d="M1328.37 662.591c6.62717,-11.4425 2.72362,-26.0918 -8.7189,-32.7189 -11.4425,-6.62717 -26.0918,-2.72362 -32.7189,8.7189l-26.4981 45.8953c-6.62717,11.4425 -2.72362,26.0918 8.7189,32.7189 11.4425,6.62717 26.0918,2.72362 32.7189,-8.7189l26.4981 -45.8953z"/>
  <path class="fil0" d="M1135.17 618.647c-3.41693,-12.789 -16.5555,-20.3858 -29.3445,-16.9689 -12.789,3.41693 -20.3858,16.5555 -16.9689,29.3445l13.7162 51.189c3.41693,12.789 16.5555,20.3858 29.3445,16.9689 12.789,-3.41693 20.3858,-16.5555 16.9689,-29.3445l-13.7162 -51.189z"/>
  <path class="fil0" d="M1390.11 1023.49c11.4425,6.5752 26.0504,2.63032 32.6256,-8.81221 6.5752,-11.4425 2.63032,-26.0504 -8.81221,-32.6256l-45.8953 -26.4969c-11.4425,-6.5752 -26.0504,-2.63032 -32.6256,8.81221 -6.5752,11.4425 -2.63032,26.0504 8.81221,32.6256l45.8953 26.4969z"/>
  <path class="fil0" d="M1433.96 830.293c12.789,-3.41693 20.3858,-16.5555 16.9689,-29.3445 -3.41693,-12.789 -16.5555,-20.3858 -29.3445,-16.9689l-51.1902 13.7173c-12.789,3.41693 -20.3858,16.5555 -16.9689,29.3445 3.41693,12.789 16.5555,20.3858 29.3445,16.9689l51.1902 -13.7173z"/>
 </g>
 <rect class="fil1" width="2048" height="2048"/>
</svg>
