<?xml version="1.0" encoding="utf-8"?>
<!-- Generator: Adobe Illustrator 16.0.0, SVG Export Plug-In . SVG Version: 6.00 Build 0)  -->
<!DOCTYPE svg PUBLIC "-//W3C//DTD SVG 1.0//EN" "http://www.w3.org/TR/2001/REC-SVG-20010904/DTD/svg10.dtd">
<svg version="1.0" id="Layer_1" xmlns="http://www.w3.org/2000/svg" xmlns:xlink="http://www.w3.org/1999/xlink" x="0px" y="0px"
	 width="100px" height="100px" viewBox="0 0 100 100" enable-background="new 0 0 100 100" xml:space="preserve">
<polygon fill="#29B6F6" points="17.779,76.667 13.333,90 20.362,90 24.804,76.667 "/>
<polygon fill="#29B6F6" points="32.971,76.667 28.529,90 35.553,90 40,76.667 "/>
<polygon fill="#29B6F6" points="48.167,76.667 43.724,90 50.749,90 55.194,76.667 "/>
<polygon fill="#29B6F6" points="63.362,76.667 58.919,90 65.943,90 70.391,76.667 "/>
<polygon fill="#29B6F6" points="78.558,76.667 74.115,90 81.139,90 85.586,76.667 "/>
<path fill="#29B6F6" d="M73.333,36.666c-3.263-7.832-10.986-13.333-20-13.333c-12.422,0-22.826,8.501-25.794,20h-4.206
	C15.971,43.333,10,49.303,10,56.666C10,64.029,15.971,70,23.333,70h50C82.539,70,90,62.539,90,53.332
	C90,44.127,82.539,36.666,73.333,36.666z M73.333,63.332h-50c-3.679,0-6.667-2.994-6.667-6.668c0-3.678,2.987-6.666,6.667-6.666h10
	c0-11.048,8.956-20,20-20c7.701,0,13.99,5.853,14.83,13.332h5.17c5.515,0,10,4.486,10,10C83.333,58.848,78.848,63.332,73.333,63.332
	z"/>
<path fill="#FFCA28" d="M18.966,44.068c1.369-0.475,2.837-0.735,4.367-0.735h4.206c0.298-1.154,0.674-2.274,1.116-3.362
	C28.545,39.977,28.443,40,28.334,40c-6.438,0-11.668-5.224-11.668-11.666c0-6.441,5.23-11.667,11.668-11.667
	c5.983,0,10.86,4.524,11.533,10.325c1.966-1.156,4.093-2.066,6.34-2.689C44.37,16.121,37.075,10,28.334,10
	C18.209,10,10,18.21,10,28.334C10,35.031,13.605,40.872,18.966,44.068z"/>
</svg>
